<svg xmlns="http://www.w3.org/2000/svg" viewBox="0 0 98 98"><defs><style>.cls-1{fill:#b1e0e2;}.cls-2{fill:#fff;}.cls-2,.cls-3{stroke:#231f20;stroke-miterlimit:10;stroke-width:0.5px;}.cls-4{fill:#231f20;}</style></defs><title>AppDevelopments</title><g id="Youtube_ProfilePic" data-name="Youtube ProfilePic"><rect class="cls-1" width="98" height="98"/><polygon points="30.22 32.72 30.22 26.36 27.83 26.46 8.23 47.83 8.41 52.04 11.71 55.09 28.4 70.47 30.22 70.41 30.22 64.05 15.75 50.7 14.63 49.67 30.19 32.7 30.22 32.72"/><path class="cls-2" d="M64.18,17.62,36.42,71.67a3,3,0,0,1-.73-2V19.61a3.59,3.59,0,0,1,3.73-3.39H42a.71.71,0,0,0-.74.68v1.93a.71.71,0,0,0,.74.67H57.85a.71.71,0,0,0,.74-.67V16.9a.71.71,0,0,0-.74-.68h3.33A3.8,3.8,0,0,1,64.18,17.62Z"/><path class="cls-3" d="M41.22,16.9v1.93a.71.71,0,0,0,.74.68H57.85a.71.71,0,0,0,.74-.68V16.9a.71.71,0,0,0-.74-.68H42A.71.71,0,0,0,41.22,16.9Z"/><path class="cls-2" d="M64.9,27.75V77.82a3.57,3.57,0,0,1-3.72,3.39H39.42a3.81,3.81,0,0,1-3-1.4L64.18,25.75A3.14,3.14,0,0,1,64.9,27.75Z"/><polygon points="92.31 44.8 89 41.75 72.31 26.36 70.5 26.43 70.5 32.79 84.97 46.13 86.09 47.17 70.52 64.14 70.5 64.11 70.5 70.47 72.89 70.37 92.48 49.01 92.31 44.8"/><rect class="cls-4" x="48.33" y="10.97" width="3.92" height="76.05" transform="translate(27.62 -17.45) rotate(26.91)"/></g></svg>